<svg width="256" height="256" viewBox="0 0 256 256" fill="none" xmlns="http://www.w3.org/2000/svg">
  <rect width="256" height="256" rx="54" fill="#030303"/>
  <rect x="20" y="20" width="216" height="216" rx="38" fill="#090909" stroke="#2f2f2f" stroke-width="8"/>
  <path d="M58 92L100 128L58 164" stroke="#F4F4F4" stroke-width="18" stroke-linecap="round" stroke-linejoin="round"/>
  <path d="M116 169H170" stroke="#F4F4F4" stroke-width="18" stroke-linecap="round"/>
  <path d="M151 71L196 96L151 121L106 96L151 71Z" fill="#2AAAFF"/>
  <path d="M106 96L151 121V173L106 148V96Z" fill="#43F07A"/>
  <path d="M196 96L151 121V173L196 148V96Z" fill="#FF4F4A"/>
  <path d="M106 96L151 121L196 96" stroke="#FFFFFF" stroke-opacity="0.72" stroke-width="5" stroke-linejoin="round"/>
  <path d="M151 121V173" stroke="#FFFFFF" stroke-opacity="0.55" stroke-width="5" stroke-linecap="round"/>
  <path d="M106 96V148L151 173L196 148V96" stroke="#FFFFFF" stroke-opacity="0.55" stroke-width="5" stroke-linejoin="round"/>
</svg>
